<svg width="327" height="374" viewBox="0 0 327 374" fill="none" xmlns="http://www.w3.org/2000/svg">
<path d="M9 214.674V2.7593H65.0139V40.1479H67.4972C71.9121 27.731 79.2703 17.9355 89.5717 10.7613C99.8731 3.58709 112.198 0 126.546 0C141.079 0 153.45 3.63308 163.659 10.8992C173.868 18.0734 180.675 27.823 184.078 40.1479H186.285C190.608 28.0069 198.426 18.3034 209.739 11.0372C221.144 3.67907 234.619 0 250.163 0C269.938 0 285.988 6.30041 298.313 18.9012C310.73 31.4101 316.938 49.1616 316.938 72.1558V214.674H258.303V83.7449C258.303 71.9718 255.176 63.1421 248.921 57.2556C242.667 51.369 234.849 48.4258 225.467 48.4258C214.798 48.4258 206.474 51.8289 200.496 58.6352C194.517 65.3495 191.528 74.2253 191.528 85.2625V214.674H134.548V82.5032C134.548 72.1098 131.559 63.8319 125.581 57.6694C119.694 51.507 111.922 48.4258 102.264 48.4258C95.7341 48.4258 89.8476 50.0814 84.6049 53.3925C79.4542 56.6117 75.3613 61.1646 72.326 67.0511C69.2908 72.8456 67.7732 79.6519 67.7732 87.4699V214.674H9Z" fill="#FF3D00"/>
<path fill-rule="evenodd" clip-rule="evenodd" d="M326.714 280.344L306.185 301.529C245.272 364.389 183.559 381.138 129.478 370.567C77.7221 360.451 38.7544 326.405 18.2272 298.467L0.76001 274.694L48.3056 239.76L65.7728 263.533C80.177 283.137 107.427 306.14 140.797 312.663C171.841 318.731 214.163 311.71 263.815 260.471L284.344 239.286L326.714 280.344Z" fill="#FF3D00"/>
</svg>
