<svg width="159" height="33" viewBox="0 0 159 33" fill="none" xmlns="http://www.w3.org/2000/svg">
<path d="M91.0367 18.6319V0.453432H99.8168V32.1112H91.3871V26.3609H91.0574C90.3429 28.2158 89.1543 29.7067 87.4917 30.8334C85.8429 31.9601 83.8299 32.5234 81.4528 32.5234C79.3368 32.5234 77.475 32.0425 75.8674 31.0807C74.2598 30.1189 73.0025 28.7517 72.0957 26.9792C71.2025 25.2067 70.7491 23.0838 70.7354 20.6105V0.453432H79.5155V19.0441C79.5292 20.9128 80.0307 22.3899 81.02 23.4754C82.0093 24.5609 83.3353 25.1036 84.9979 25.1036C86.0559 25.1036 87.0452 24.8632 87.9658 24.3823C88.8864 23.8876 89.6284 23.1594 90.1917 22.1975C90.7688 21.2357 91.0505 20.0472 91.0367 18.6319Z" fill="#EF6820"/>
<path d="M106.84 32.1112V0.453432H115.352V5.97706H115.682C116.259 4.01218 117.228 2.52823 118.588 1.52518C119.948 0.508394 121.515 0 123.287 0C123.727 0 124.201 0.0274804 124.709 0.0824412C125.218 0.137404 125.664 0.212976 126.049 0.309157V8.09994C125.637 7.97628 125.066 7.86635 124.338 7.77017C123.61 7.67399 122.944 7.6259 122.339 7.6259C121.047 7.6259 119.893 7.90758 118.876 8.47093C117.873 9.02055 117.076 9.79001 116.486 10.7793C115.909 11.7686 115.62 12.9091 115.62 14.2007V32.1112H106.84Z" fill="#EF6820"/>
<path d="M143.418 32.7295C140.217 32.7295 137.448 32.0494 135.112 30.6891C132.79 29.3151 130.997 27.4051 129.733 24.9594C128.469 22.4998 127.837 19.6487 127.837 16.406C127.837 13.1358 128.469 10.2778 129.733 7.83201C130.997 5.37248 132.79 3.46257 135.112 2.10227C137.448 0.728239 140.217 0.0412223 143.418 0.0412223C146.62 0.0412223 149.382 0.728239 151.704 2.10227C154.04 3.46257 155.84 5.37248 157.104 7.83201C158.368 10.2778 159 13.1358 159 16.406C159 19.6487 158.368 22.4998 157.104 24.9594C155.84 27.4051 154.04 29.3151 151.704 30.6891C149.382 32.0494 146.62 32.7295 143.418 32.7295ZM143.46 25.9281C144.916 25.9281 146.132 25.5158 147.108 24.6914C148.083 23.8533 148.818 22.7128 149.313 21.2701C149.821 19.8273 150.076 18.1854 150.076 16.3442C150.076 14.5029 149.821 12.861 149.313 11.4182C148.818 9.9755 148.083 8.83505 147.108 7.99689C146.132 7.15873 144.916 6.73965 143.46 6.73965C141.989 6.73965 140.753 7.15873 139.75 7.99689C138.76 8.83505 138.012 9.9755 137.503 11.4182C137.009 12.861 136.761 14.5029 136.761 16.3442C136.761 18.1854 137.009 19.8273 137.503 21.2701C138.012 22.7128 138.76 23.8533 139.75 24.6914C140.753 25.5158 141.989 25.9281 143.46 25.9281Z" fill="#EF6820"/>
<path d="M0 32.07V0.41221H8.36788V5.99767H8.73887C9.39841 4.14272 10.4976 2.67937 12.0366 1.60762C13.5755 0.535873 15.4167 0 17.5602 0C19.7312 0 21.5792 0.542744 23.1044 1.62823C24.6296 2.69998 25.6464 4.15646 26.1548 5.99767H26.4845C27.1303 4.18394 28.2983 2.73433 29.9883 1.64884C31.6921 0.549614 33.7051 0 36.0272 0C38.9814 0 41.3791 0.941215 43.2203 2.82364C45.0752 4.69233 46.0027 7.34422 46.0027 10.7793V32.07H37.2432V12.5106C37.2432 10.7518 36.7761 9.43276 35.8417 8.55337C34.9074 7.67399 33.7395 7.2343 32.3379 7.2343C30.7441 7.2343 29.5006 7.74269 28.6074 8.75948C27.7143 9.76252 27.2677 11.0885 27.2677 12.7373V32.07H18.7556V12.3251C18.7556 10.7724 18.309 9.53581 17.4159 8.6152C16.5365 7.6946 15.3755 7.2343 13.9327 7.2343C12.9572 7.2343 12.0778 7.48163 11.2946 7.97628C10.5251 8.45719 9.91367 9.13734 9.46024 10.0167C9.00681 10.8824 8.78009 11.8992 8.78009 13.0671V32.07H0Z" fill="#EF6820"/>
<path d="M45.673 5.99767H44.8898L45.3432 32.07H46.0027V12.7373C46.0027 11.0885 46.4493 9.76252 47.3424 8.75948C48.2355 7.74269 49.479 7.2343 51.0729 7.2343C52.4744 7.2343 53.6424 7.67399 54.5767 8.55337C55.5111 9.43276 55.9782 10.7518 55.9782 12.5106V32.07H64.7377V10.7793C64.7377 7.34422 63.8102 4.69233 61.9553 2.82364C60.1141 0.941215 58.1698 0 55.2156 0C52.8935 0 50.8806 0.549614 49.1767 1.64884C47.4867 2.73433 46.3188 4.18394 45.673 5.99767Z" fill="#EF6820"/>
</svg>
